<svg width="3259" height="1759" viewBox="0 0 3259 1759" fill="none" xmlns="http://www.w3.org/2000/svg">
<g clip-path="url(#clip0_4_2)">
<mask id="mask0_4_2" style="mask-type:luminance" maskUnits="userSpaceOnUse" x="0" y="0" width="3259" height="1759">
<path d="M3259 0H0V1759H3259V0Z" fill="white"/>
</mask>
<g mask="url(#mask0_4_2)">
<path d="M1036.33 0.799869C1033 1.06654 1021.67 1.99987 1011 2.66654C840.333 15.3332 671.133 81.5999 535.666 189.066C515.4 205.2 489.8 227.066 489.8 228.4C489.666 228.933 491.266 228.933 493.4 228.4C495.4 227.866 518.6 227.333 545 227.333C582.6 227.333 597.133 227.866 612.333 229.733C711.933 241.866 789 270.8 921.133 346L943.133 358.533L957.133 355.2C972.2 351.733 1003.27 346.533 1025.67 343.733C1044.33 341.466 1116.2 341.466 1135.67 343.733C1172.2 348 1197.4 352.933 1229.67 362.133C1313 385.866 1388.47 428.8 1452.33 488.933C1458.07 494.267 1463 498.667 1463.27 498.667C1463.67 498.667 1517.67 444.4 1583.4 378.133L1703 257.6L1689.93 244.933C1628.6 185.066 1548.87 129.066 1469 89.9999C1371.13 41.9999 1271.67 14.1332 1159.67 3.19987C1139.67 1.3332 1051.13 -0.400131 1036.33 0.799869Z" fill="#1015EA"/>
<path d="M503 342.133C499 342.533 485.8 344 473.667 345.467C316.067 364.933 176.467 451.6 89.1332 583.867C46.3332 648.533 19.7998 715.6 6.99984 791.067C1.2665 825.733 -0.333496 844 -0.333496 882C-0.333496 920 1.2665 938.267 6.99984 972.933C24.4665 1076.4 70.7332 1170.13 143.133 1249.33C222.2 1335.6 332.333 1395.2 449.667 1415.2C480.867 1420.53 499.533 1421.87 539.667 1422C580.2 1422 593.8 1420.93 625.667 1415.87C683.933 1406.67 739.667 1388 793.933 1359.47C802.6 1355.07 809.667 1351.07 809.533 1350.67C809.533 1350.27 802.467 1345.6 793.667 1340.27C725.533 1298.4 659.8 1231.6 617.8 1161.6C574.467 1089.33 548.6 1009.33 541.8 926.267C539.933 904.533 539.933 860.133 541.667 837.867C549.267 743.867 582.733 650.4 636.733 573.333C678.067 514.133 736.2 458.8 793.933 423.6C802.467 418.267 809.533 413.6 809.667 413.2C809.667 411.733 756.2 385.733 740.333 379.6C694.067 361.733 649.933 350.533 601.667 344.667C584.333 342.533 520.2 340.933 503 342.133Z" fill="#1015EA"/>
<path d="M906.333 597.467C786.066 609.867 692.866 680.134 656.466 785.6C645.533 817.334 641.133 845.334 641.133 882C641.266 957.734 666.999 1022.93 717.666 1075.2C764.066 1123.07 820.466 1151.2 892.333 1162.27C915.666 1165.87 966.599 1165.47 991.666 1161.6C1026.6 1156.13 1054.33 1147.6 1083.67 1133.33C1172.2 1090.4 1226.87 1010.27 1236.47 909.334C1238.33 889.467 1237.4 854.667 1234.33 834.667C1220.33 741.867 1167.13 668.667 1084.07 628C1041.67 607.2 999.399 597.6 946.333 596.667C930.999 596.4 912.999 596.667 906.333 597.467ZM959.666 701.334C996.733 704.8 1026.87 714.8 1053.67 732.534C1090.6 757.2 1114.33 793.334 1124.6 840.4C1128.6 858.8 1128.87 901.067 1125.27 919.067C1111.4 987.734 1064.47 1036.53 995.799 1054C976.199 1058.93 962.733 1060.53 938.333 1060.4C881.266 1060.13 835.933 1042.67 800.199 1006.8C774.466 981.2 760.333 954.134 752.733 916.534C749.533 900.134 749.533 861.467 752.866 844.8C763.799 789.334 795.799 746.267 843.799 722.134C878.333 704.8 918.866 697.6 959.666 701.334Z" fill="#010101"/>
<path d="M1511.67 597.466C1430.07 605.732 1371.4 632.132 1338.47 675.066C1318.33 701.466 1310.07 732.132 1313.4 768.132C1318.87 826.132 1344.07 863.866 1394.33 888.932C1428.6 906.132 1464.2 914.532 1548.33 925.332C1599.93 931.866 1617.93 934.932 1637.4 939.999C1671.27 948.932 1690.07 962.399 1696.33 982.532C1705.27 1010.8 1690.07 1038 1655.8 1054.67C1612.33 1076 1544.07 1077.6 1492.33 1058.53C1457.13 1045.47 1429.8 1020.53 1421.93 994.399L1419.67 986.666H1362.6H1305.53L1306.33 994.266C1309.13 1016.8 1319.93 1044.53 1333.93 1064.93C1343.27 1078.67 1364.6 1099.87 1380.33 1111.07C1394.2 1120.93 1426.6 1137.6 1444.33 1144.13C1505.67 1166.4 1589.8 1171.47 1655.53 1156.67C1754.07 1134.4 1813 1070.13 1807.67 990.666C1802.87 916.932 1768.07 872.799 1694.87 847.332C1665.67 837.199 1634.87 830.932 1577.67 823.332C1557.53 820.799 1532.6 817.332 1522.33 815.866C1464.33 807.466 1436.73 795.199 1425.93 773.332C1422.87 767.066 1422.33 764.266 1422.33 754.666C1422.33 744.532 1422.87 742.266 1426.6 734.532C1434.6 718.266 1452.33 705.199 1477.67 696.799C1497.53 690.266 1512.2 687.866 1539 687.066C1573.4 685.999 1599.4 690.399 1625.8 701.866C1653.67 713.999 1677 735.732 1683.67 756.132L1685.93 762.666H1742.47H1799L1798.07 756.266C1795.13 732.932 1783 703.599 1768.6 684.532C1734.6 639.599 1675.67 609.466 1601.67 599.332C1583.4 596.799 1528.87 595.599 1511.67 597.466Z" fill="#010101"/>
<path d="M2927.67 597.467C2807.4 609.867 2714.2 680.134 2677.8 785.6C2666.87 817.334 2662.47 845.334 2662.47 882C2662.6 957.734 2688.33 1022.93 2739 1075.2C2785.4 1123.07 2841.8 1151.2 2913.67 1162.27C2937 1165.87 2987.93 1165.47 3013 1161.6C3047.93 1156.13 3075.67 1147.6 3105 1133.33C3193.53 1090.4 3248.2 1010.27 3257.8 909.334C3259.67 889.467 3258.73 854.667 3255.67 834.667C3241.67 741.867 3188.47 668.667 3105.4 628C3063 607.2 3020.73 597.6 2967.67 596.667C2952.33 596.4 2934.33 596.667 2927.67 597.467ZM2981 701.334C3018.07 704.8 3048.2 714.8 3075 732.534C3111.93 757.2 3135.67 793.334 3145.93 840.4C3149.93 858.8 3150.2 901.067 3146.6 919.067C3132.73 987.734 3085.8 1036.53 3017.13 1054C2997.53 1058.93 2984.07 1060.53 2959.67 1060.4C2902.6 1060.13 2857.27 1042.67 2821.53 1006.8C2795.8 981.2 2781.67 954.134 2774.07 916.534C2770.87 900.134 2770.87 861.467 2774.2 844.8C2785.13 789.334 2817.13 746.267 2865.13 722.134C2899.67 704.8 2940.2 697.6 2981 701.334Z" fill="#010101"/>
<path d="M1900.33 880.666V1153.33H1955H2009.67V880.666V608H1955H1900.33V880.666Z" fill="#010101"/>
<path d="M2062.73 609.6C2063.4 610.533 2119.93 686 2188.2 777.2L2312.33 943.066V1048.27V1153.33H2367H2421.67V1048V942.666L2547 775.333L2672.2 608H2603.67H2535L2450.87 720.133L2366.87 832.266L2282.73 720.133L2198.73 608H2130.07C2075.27 608 2061.67 608.4 2062.73 609.6Z" fill="#010101"/>
<path d="M1458.87 1268.8C1454.2 1273.87 1426.6 1298.13 1415.67 1306.8C1347.93 1360.53 1264.33 1398.27 1179 1413.87C1141.4 1420.67 1126.47 1422 1081.67 1422C1030.2 1422 1004.47 1419.33 960.067 1409.2L943.133 1405.47L921.4 1417.87C790.6 1492.67 706.867 1524.13 611.933 1534.13C587.8 1536.67 533.933 1537.87 512.067 1536.4C502.6 1535.87 495 1535.47 495 1535.73C495 1536.4 496.467 1537.6 518.2 1555.87C683.4 1694.53 896.467 1767.07 1113.8 1758.67C1332.07 1750.27 1530.07 1666.13 1690.73 1513.87L1703.27 1502L1662.73 1462C1640.6 1440 1586.73 1386.8 1543.27 1343.73C1499.8 1300.53 1463.8 1265.33 1463.27 1265.33C1462.6 1265.33 1460.73 1266.93 1458.87 1268.8Z" fill="#1015EA"/>
<path d="M2264.33 1300.67C2253.27 1303.07 2236.2 1311.6 2228.07 1318.67C2220.47 1325.2 2211 1339.33 2207.13 1349.73C2201.4 1365.47 2201.4 1389.2 2207.13 1404.93C2219.4 1437.73 2251.27 1457.47 2289 1455.6C2320.2 1454 2345.8 1438.53 2357.53 1414.27C2364.33 1400.27 2364.73 1400.67 2347.4 1400.27L2332.47 1399.87L2327.53 1406.53C2317.27 1420.13 2303.67 1426.67 2285.27 1426.67C2259.67 1426.67 2241.53 1414.67 2234.87 1393.2C2226.33 1365.87 2240.73 1337.6 2266.87 1330.13C2276.07 1327.47 2293.8 1327.33 2302.47 1330C2311.93 1332.8 2321 1339.2 2327.13 1347.6L2332.47 1354.8L2347.4 1354.4C2364.73 1354 2364.33 1354.4 2357.53 1340.4C2349.4 1323.33 2332.73 1309.47 2313.13 1303.2C2299.53 1298.8 2277.53 1297.73 2264.33 1300.67Z" fill="#010101"/>
<path d="M1764.33 1377.33V1452H1779.67H1795V1377.33V1302.67H1779.67H1764.33V1377.33Z" fill="#010101"/>
<path d="M1816.33 1316.67V1330.67H1843H1869.67V1391.33V1452H1885H1900.33V1391.33V1330.67H1926.33H1952.33V1316.67V1302.67H1884.33H1816.33V1316.67Z" fill="#010101"/>
<path d="M2052.73 1377.33L2015.13 1452H2031.67H2048.33L2057 1434.67L2065.67 1417.33H2107H2148.33L2157 1434.67L2165.67 1452H2182.47H2199.13L2161.4 1377.33L2123.67 1302.67H2107H2090.33L2052.73 1377.33ZM2120.73 1363.33L2133.67 1389.33H2106.87C2091.67 1389.33 2080.33 1388.8 2080.6 1388.13C2081.93 1384.4 2106.47 1337.33 2107 1337.33C2107.4 1337.33 2113.53 1349.07 2120.73 1363.33Z" fill="#010101"/>
<path d="M2407.4 1377.33L2369.8 1452H2386.33H2403L2411.67 1434.67L2420.33 1417.33H2461.67H2503L2511.67 1434.67L2520.33 1452H2537.13H2553.8L2516.07 1377.33L2478.33 1302.67H2461.67H2445L2407.4 1377.33ZM2475.4 1363.33L2488.33 1389.33H2461.53C2446.33 1389.33 2435 1388.8 2435.27 1388.13C2436.6 1384.4 2461.13 1337.33 2461.67 1337.33C2462.07 1337.33 2468.2 1349.07 2475.4 1363.33Z" fill="#010101"/>
<path d="M2568.33 1377.33V1452H2608.07C2643.53 1452 2649 1451.73 2658.33 1449.33C2684.73 1442.53 2705.8 1422.8 2713.8 1397.33C2716.87 1387.33 2717.4 1369.73 2714.87 1359.33C2708.47 1332.67 2685.13 1310.53 2657 1304.67C2650.07 1303.2 2637.67 1302.67 2608.07 1302.67H2568.33V1377.33ZM2660.6 1335.6C2669.4 1339.6 2678.33 1348.4 2682.6 1357.2C2685.8 1363.73 2686.33 1366.27 2686.33 1376.67C2686.33 1386.8 2685.8 1389.87 2682.87 1396.13C2678.07 1406.27 2671.4 1413.33 2662.07 1418.13C2654.33 1422 2654.2 1422 2626.73 1422.4L2599 1422.8V1377.33V1331.87L2626.73 1332.27C2651.67 1332.67 2654.87 1332.93 2660.6 1335.6Z" fill="#010101"/>
<path d="M2741.67 1377.33V1452H2803.67H2865.8L2865.4 1438.27L2865 1424.67L2818.73 1424.27L2772.33 1424V1407.33V1390.67H2817H2861.67V1376.67V1362.67H2817H2772.33V1346.67V1330.67L2818.73 1330.4L2865 1330L2865.4 1316.27L2865.8 1302.67H2803.67H2741.67V1377.33Z" fill="#010101"/>
<path d="M2896.33 1377.33V1452H2911.67H2927V1404.93L2927.13 1358L2947.27 1405.07L2967.53 1452.13L2982.73 1451.73L2998.07 1451.33L3018.2 1404.67L3038.33 1358L3038.73 1404.93L3039 1452H3054.33H3069.67V1377.33V1302.53L3050.07 1302.93L3030.6 1303.33L3007.13 1358.93C2994.2 1389.6 2983.27 1414.67 2982.87 1414.67C2982.47 1414.67 2971.4 1389.47 2958.33 1358.67L2934.47 1302.67H2915.4H2896.33V1377.33Z" fill="#010101"/>
<path d="M3084.33 1303.33C3084.33 1303.73 3099.67 1324.4 3118.33 1349.33L3152.33 1394.67V1423.33V1452H3167.67H3183V1422.93V1393.73L3213.93 1352.53C3230.87 1329.87 3246.2 1309.33 3248.07 1306.93L3251.27 1302.67H3232.2L3213 1302.8L3190.2 1333.47L3167.27 1364L3144.33 1333.33L3121.4 1302.67H3102.87C3092.6 1302.67 3084.33 1302.93 3084.33 1303.33Z" fill="#010101"/>
</g>
</g>
<defs>
<clipPath id="clip0_4_2">
<rect width="3259" height="1759" fill="white"/>
</clipPath>
</defs>
</svg>
