<svg width="1704" height="1759" viewBox="0 0 1704 1759" fill="none" xmlns="http://www.w3.org/2000/svg">
<path d="M1036.33 0.799869C1033 1.06654 1021.67 1.99987 1011 2.66654C840.333 15.3332 671.133 81.5999 535.666 189.066C515.4 205.2 489.8 227.066 489.8 228.4C489.666 228.933 491.266 228.933 493.4 228.4C495.4 227.866 518.6 227.333 545 227.333C582.6 227.333 597.133 227.866 612.333 229.733C711.933 241.866 789 270.8 921.133 346L943.133 358.533L957.133 355.2C972.2 351.733 1003.27 346.533 1025.67 343.733C1044.33 341.466 1116.2 341.466 1135.67 343.733C1172.2 348 1197.4 352.933 1229.67 362.133C1313 385.866 1388.47 428.8 1452.33 488.933C1458.07 494.267 1463 498.667 1463.27 498.667C1463.67 498.667 1517.67 444.4 1583.4 378.133L1703 257.6L1689.93 244.933C1628.6 185.066 1548.87 129.066 1469 89.9999C1371.13 41.9999 1271.67 14.1332 1159.67 3.19987C1139.67 1.3332 1051.13 -0.400131 1036.33 0.799869Z" fill="white"/>
<path d="M503 342.133C499 342.533 485.8 344 473.667 345.467C316.067 364.933 176.467 451.6 89.1332 583.867C46.3332 648.533 19.7998 715.6 6.99984 791.067C1.2665 825.733 -0.333496 844 -0.333496 882C-0.333496 920 1.2665 938.267 6.99984 972.933C24.4665 1076.4 70.7332 1170.13 143.133 1249.33C222.2 1335.6 332.333 1395.2 449.667 1415.2C480.867 1420.53 499.533 1421.87 539.667 1422C580.2 1422 593.8 1420.93 625.667 1415.87C683.933 1406.67 739.667 1388 793.933 1359.47C802.6 1355.07 809.667 1351.07 809.533 1350.67C809.533 1350.27 802.467 1345.6 793.667 1340.27C725.533 1298.4 659.8 1231.6 617.8 1161.6C574.467 1089.33 548.6 1009.33 541.8 926.267C539.933 904.533 539.933 860.133 541.667 837.867C549.267 743.867 582.733 650.4 636.733 573.333C678.067 514.133 736.2 458.8 793.933 423.6C802.467 418.267 809.533 413.6 809.667 413.2C809.667 411.733 756.2 385.733 740.333 379.6C694.067 361.733 649.933 350.533 601.667 344.667C584.333 342.533 520.2 340.933 503 342.133Z" fill="white"/>
<path d="M1458.87 1268.8C1454.2 1273.87 1426.6 1298.13 1415.67 1306.8C1347.93 1360.53 1264.33 1398.27 1179 1413.87C1141.4 1420.67 1126.47 1422 1081.67 1422C1030.2 1422 1004.47 1419.33 960.067 1409.2L943.133 1405.47L921.4 1417.87C790.6 1492.67 706.867 1524.13 611.933 1534.13C587.8 1536.67 533.933 1537.87 512.067 1536.4C502.6 1535.87 495 1535.47 495 1535.73C495 1536.4 496.467 1537.6 518.2 1555.87C683.4 1694.53 896.467 1767.07 1113.8 1758.67C1332.07 1750.27 1530.07 1666.13 1690.73 1513.87L1703.27 1502L1662.73 1462C1640.6 1440 1586.73 1386.8 1543.27 1343.73C1499.8 1300.53 1463.8 1265.33 1463.27 1265.33C1462.6 1265.33 1460.73 1266.93 1458.87 1268.8Z" fill="white"/>
</svg>
